<svg width="16" height="16" viewBox="0 0 16 16" fill="none" xmlns="http://www.w3.org/2000/svg">
<g clip-path="url(#clip0_50_218)">
<path d="M2.27724 0.394637C1.75661 -0.125993 0.911102 -0.125993 0.390472 0.394637C-0.130157 0.915267 -0.130157 1.76077 0.390472 2.2814L6.11324 8L0.394637 13.7228C-0.125992 14.2434 -0.125992 15.0889 0.394637 15.6095C0.915267 16.1302 1.76077 16.1302 2.2814 15.6095L8 9.88676L13.7228 15.6054C14.2434 16.126 15.0889 16.126 15.6095 15.6054C16.1302 15.0847 16.1302 14.2392 15.6095 13.7186L9.88676 8L15.6054 2.27724C16.126 1.75661 16.126 0.911102 15.6054 0.390472C15.0847 -0.130157 14.2392 -0.130157 13.7186 0.390472L8 6.11324L2.27724 0.394637Z" fill="black" fill-opacity="0.8"/>
</g>
<defs>
<clipPath id="clip0_50_218">
<rect width="16" height="16" fill="white"/>
</clipPath>
</defs>
</svg>
