<svg width="16" height="16" viewBox="0 0 16 16" fill="none" xmlns="http://www.w3.org/2000/svg">
<path d="M15 10C15 10.5523 14.5523 11 14 11H2C1.44772 11 1 10.5523 1 10V3C1 2.44772 1.44772 2 2 2H14C14.5523 2 15 2.44772 15 3V10ZM4 4C3.44772 4 3 4.44772 3 5V8C3 8.55228 3.44772 9 4 9H11.9951C12.5474 9 12.9951 8.55228 12.9951 8V5C12.9951 4.44772 12.5474 4 11.9951 4H4Z" fill="#6C757D"/>
<path d="M12.0005 13C12.5526 13.0002 13.0005 13.4478 13.0005 14C13.0005 14.5522 12.5526 14.9998 12.0005 15H4.00049C3.4482 15 3.00049 14.5523 3.00049 14C3.00049 13.4477 3.4482 13 4.00049 13H7.00049V11H9.00049V13H12.0005Z" fill="#6C757D"/>
</svg>
