<svg width="16" height="16" viewBox="0 0 16 16" fill="none" xmlns="http://www.w3.org/2000/svg">
<path d="M9.39821 2.00687C9.96049 2.00748 10.3575 2.95334 10.3574 3.51562C10.3574 3.76395 10.183 4.00684 9.9347 4.00684H5C4.44772 4.00684 4 4.45455 4 5.00684V11.0029C4.00007 11.5552 4.44776 12.0029 5 12.0029H11C11.5522 12.0029 11.9999 11.5552 12 11.0029V6.17832C12 5.79309 12.3716 5.51561 12.7568 5.51562C13.3473 5.51562 14 5.92194 14 6.51236V12.957C13.9999 13.5077 13.5546 13.9549 13.0039 13.957L3.00391 13.9951C2.45015 13.9972 2.00003 13.5489 2 12.9951V3C2 2.44733 2.44832 1.99946 3.00098 2L9.39821 2.00687Z" fill="#6C757D"/>
<circle cx="12.9277" cy="3.00586" r="1" fill="#6C757D"/>
<path d="M5.0188 5.00854H11.0188V6.00854H5.0188V5.00854Z" fill="#6C757D"/>
<path d="M5.0188 7.00464H11.0188V8.00464H5.0188V7.00464Z" fill="#6C757D"/>
<path d="M5.0188 9.00684H11.0188V10.0068H5.0188V9.00684Z" fill="#6C757D"/>
</svg>
