<svg width="16" height="16" viewBox="0 0 16 16" fill="none" xmlns="http://www.w3.org/2000/svg">
<path d="M7.70015 3.70556C7.88774 3.89352 8.1424 3.99915 8.40795 3.99915H11.2342C11.6999 3.99915 12.0127 4.53443 12.0127 5.00012C12.0127 5.48119 11.6904 6.04504 11.2093 6.04504H8.22134C7.94035 6.04504 7.67233 5.92683 7.48287 5.71933L5.2974 3.32584C5.10794 3.11834 4.83992 3.00012 4.55893 3.00012H4.00352C3.44986 3.00012 3.00158 3.44998 3.00353 4.00364L3.03165 12.0066C3.03359 12.5575 3.48074 13.0031 4.03165 13.0031H12.0137C12.566 13.0031 13.0137 12.5553 13.0137 12.0031V7.77735C13.0137 7.31236 13.5477 7.00012 14.0127 7.00012C14.4781 7.00012 15.0127 7.31226 15.0127 7.77762V14.0031C15.0127 14.5553 14.565 15.0031 14.0127 15.0031H2.00195C1.44967 15.0031 1.00195 14.5553 1.00195 14.0031V2.00012C1.00195 1.44784 1.44967 1.00012 2.00195 1.00012H4.58521C4.85077 1.00012 5.10542 1.10575 5.29301 1.29371L7.70015 3.70556Z" fill="#6C757D"/>
<circle cx="14.0127" cy="5" r="1" fill="#6C757D"/>
</svg>
