<svg width="16" height="16" viewBox="0 0 16 16" fill="none" xmlns="http://www.w3.org/2000/svg">
<path d="M8.00024 1.00012C9.93317 1.00021 11.5002 2.56718 11.5002 4.50012C11.5002 6.43301 9.93313 8.00004 8.00024 8.00012C6.06729 8.00012 4.50031 6.43306 4.50024 4.50012C4.50024 2.56713 6.06725 1.00012 8.00024 1.00012ZM8.00024 2.50012C6.89567 2.50012 6.00024 3.39555 6.00024 4.50012C6.00024 5.60469 6.89567 6.50012 8.00024 6.50012C9.10481 6.50012 10.0002 5.60469 10.0002 4.50012C10.0002 3.39555 9.10481 2.50012 8.00024 2.50012Z" fill="#6C757D"/>
<path d="M3 15.0003H1V12.0003C1 10.0033 3.31853 8.97888 5.02711 8.97894C6.14971 8.97898 7.13977 9.99838 7.99997 10.0033C8.87513 10.0083 10.138 9.02305 11.0121 8.97894C12.6767 8.89494 15 10.003 15 12.0003V15.0003H13V13.0003C13 11.0841 12.1497 11.0003 11 11.0003H7.99997H4.99997C3.99906 11.0003 3.02776 10.8722 3 13.0003C2.95056 13.9863 3 15.0003 3 15.0003Z" fill="#6C757D"/>
<rect x="3.99756" y="13" width="1" height="2" rx="0.5" transform="rotate(-0.14064 3.99756 13)" fill="#6C757D"/>
<rect x="10.9976" y="13" width="1" height="2" rx="0.5" transform="rotate(-0.14064 10.9976 13)" fill="#6C757D"/>
</svg>
